<?xml version="1.0" standalone="no"?>
<!DOCTYPE svg PUBLIC "-//W3C//DTD SVG 20010904//EN"
 "http://www.w3.org/TR/2001/REC-SVG-20010904/DTD/svg10.dtd">
<svg version="1.0" xmlns="http://www.w3.org/2000/svg"
 width="2080.000000pt" height="457.000000pt" viewBox="0 0 2080.000000 457.000000"
 preserveAspectRatio="xMidYMid meet">

<g transform="translate(0.000000,457.000000) scale(0.100000,-0.100000)"
fill="#000000" stroke="none">
<path d="M2153 4316 c-118 -56 -155 -218 -74 -332 29 -42 31 -49 31 -140 0
-86 2 -95 18 -90 9 2 32 7 50 11 32 7 32 7 32 69 l0 62 50 0 50 -1 0 -61 0
-62 44 -11 c72 -18 69 -22 64 88 -5 96 -4 101 23 141 52 77 50 177 -5 257 -63
92 -175 119 -283 69z m161 -107 c25 -12 56 -63 56 -94 0 -25 -27 -72 -52 -89
-28 -20 -80 -20 -117 -1 -58 29 -67 128 -16 173 29 25 87 30 129 11z"/>
<path d="M1845 4236 c-224 -57 -422 -140 -615 -256 -103 -62 -220 -147 -220
-159 0 -4 25 -31 55 -61 l55 -54 31 23 c95 71 165 115 259 164 166 88 413 180
429 161 4 -5 4 -47 1 -94 l-5 -85 -20 23 c-45 51 -125 14 -125 -58 0 -64 58
-95 114 -61 27 17 35 19 39 7 3 -8 6 -133 6 -278 0 -211 -3 -271 -15 -293 -28
-54 -17 -108 27 -130 38 -20 61 -19 92 5 35 27 41 63 20 108 -16 34 -18 77
-18 517 0 438 2 483 18 514 9 19 17 36 17 38 0 5 -8 3 -145 -31z"/>
<path d="M2547 4218 c14 -38 16 -100 13 -518 -1 -389 -4 -478 -16 -494 -25
-36 -18 -81 17 -110 42 -36 81 -34 113 5 29 34 33 75 11 105 -12 16 -14 70
-15 307 0 192 3 287 10 287 6 0 23 -9 39 -20 22 -17 32 -19 53 -11 32 12 58
48 58 79 0 53 -88 95 -120 57 -7 -8 -19 -15 -26 -15 -11 0 -14 20 -14 86 l0
86 35 -6 c133 -25 406 -152 584 -270 l113 -76 59 51 c55 48 59 53 44 69 -28
31 -218 156 -315 208 -180 96 -465 198 -607 217 l-53 7 17 -44z"/>
<path d="M926 3737 l-29 -24 39 -15 c21 -9 52 -28 68 -43 31 -29 31 -29 40 0
4 15 -4 32 -32 63 -21 23 -42 42 -48 42 -5 0 -22 -11 -38 -23z"/>
<path d="M3506 3709 c-43 -46 -46 -53 -33 -67 14 -14 19 -12 49 14 19 17 49
36 66 43 l32 14 -25 23 c-15 13 -29 24 -34 24 -4 0 -29 -23 -55 -51z"/>
<path d="M1395 3711 c-58 -26 -99 -64 -120 -110 l-18 -41 -79 0 c-77 0 -79 -1
-76 -22 3 -21 9 -23 81 -26 76 -3 77 -3 77 -30 0 -123 112 -226 243 -224 81 1
141 33 184 98 83 125 39 291 -92 353 -57 27 -144 28 -200 2z m181 -135 c29
-29 34 -41 34 -80 0 -85 -80 -142 -156 -111 -45 18 -74 60 -74 107 0 77 39
117 114 118 41 0 53 -5 82 -34z"/>
<path d="M2905 3703 c-33 -19 -59 -44 -80 -77 -27 -44 -30 -58 -30 -131 0 -73
3 -86 30 -131 35 -56 87 -89 163 -104 127 -24 250 70 268 204 l7 47 64 -2 c52
-2 66 1 78 17 8 10 15 22 15 27 0 4 -35 7 -78 7 l-78 0 -34 52 c-19 29 -55 66
-80 83 -38 26 -56 30 -120 33 -66 2 -81 -1 -125 -25z m201 -127 c29 -29 34
-41 34 -80 0 -36 -6 -52 -30 -80 -87 -98 -235 -12 -199 117 14 52 51 77 111
77 43 0 54 -4 84 -34z"/>
<path d="M5530 3694 c-401 -73 -686 -298 -834 -658 -78 -188 -91 -480 -32
-700 129 -481 564 -794 1075 -773 69 3 158 12 196 20 537 118 881 599 827
1154 -46 467 -334 812 -782 934 -59 16 -112 21 -250 24 -96 2 -186 1 -200 -1z
m339 -389 c148 -35 308 -158 378 -290 127 -244 117 -589 -25 -806 -83 -126
-207 -217 -348 -253 -94 -24 -283 -22 -370 5 -140 42 -246 119 -323 234 -85
128 -121 258 -121 441 0 142 21 240 75 351 78 159 210 269 376 313 93 24 266
26 358 5z"/>
<path d="M9969 3690 c-301 -54 -556 -220 -717 -464 -205 -313 -226 -742 -52
-1091 138 -277 380 -467 697 -547 74 -19 115 -22 258 -22 188 0 273 15 423 75
424 169 689 616 643 1086 -27 275 -117 478 -290 657 -97 100 -173 154 -302
215 -157 74 -241 93 -444 97 -93 1 -191 -1 -216 -6z m371 -391 c145 -40 254
-117 334 -237 82 -124 118 -256 118 -437 0 -334 -164 -578 -446 -664 -97 -30
-285 -30 -382 0 -172 52 -291 153 -368 310 -63 129 -79 220 -74 402 4 123 8
153 33 226 70 206 218 349 417 401 104 27 269 27 368 -1z"/>
<path d="M12221 3690 c-259 -54 -443 -197 -512 -396 -34 -98 -34 -286 -2 -390
41 -129 141 -233 298 -311 59 -29 157 -63 400 -138 257 -79 345 -156 345 -301
-1 -110 -65 -194 -176 -229 -78 -24 -242 -18 -300 12 -75 39 -127 115 -148
216 l-6 27 -226 0 -225 0 6 -47 c21 -158 69 -257 170 -358 140 -140 350 -215
601 -215 179 0 337 42 463 123 122 79 195 170 242 299 76 207 32 437 -110 578
-94 95 -220 155 -500 241 -197 60 -293 102 -351 155 -54 49 -70 87 -70 166 1
151 97 234 270 231 114 -1 183 -27 243 -92 40 -42 67 -98 67 -138 0 -10 53
-13 230 -13 l230 0 0 31 c0 17 -7 58 -16 92 -54 211 -218 368 -454 438 -62 18
-106 22 -250 25 -96 1 -195 -1 -219 -6z"/>
<path d="M14520 3685 c-127 -22 -201 -45 -305 -95 -273 -132 -460 -363 -547
-678 -19 -67 -22 -104 -22 -277 0 -186 2 -207 27 -300 97 -361 358 -628 710
-729 385 -111 830 -3 1077 260 93 100 186 252 215 352 l6 22 -238 0 -239 0
-42 -64 c-102 -156 -259 -236 -462 -236 -189 0 -311 49 -435 174 -127 127
-181 261 -192 471 -15 290 85 512 291 647 82 53 170 79 293 85 125 7 203 -7
299 -52 88 -42 162 -108 210 -186 l37 -59 239 0 239 0 -7 23 c-17 56 -77 173
-124 242 -115 165 -304 302 -505 364 -154 48 -369 63 -525 36z"/>
<path d="M7160 3505 l0 -175 275 0 275 0 0 -875 0 -875 215 0 215 0 0 875 0
875 275 0 275 0 0 175 0 175 -765 0 -765 0 0 -175z"/>
<path d="M16510 2723 c-189 -527 -358 -1000 -377 -1051 l-33 -92 221 2 222 3
67 195 67 195 419 0 419 0 32 -95 c18 -52 49 -141 69 -197 l36 -103 219 0
c120 0 219 3 219 8 0 4 -168 475 -374 1047 l-373 1040 -245 3 -244 2 -344
-957z m739 25 l147 -423 -295 -3 c-162 -1 -296 0 -299 2 -2 3 53 171 123 373
70 202 137 394 148 426 10 32 22 56 25 53 3 -3 71 -196 151 -428z"/>
<path d="M18560 2630 l0 -1050 210 0 210 0 2 717 3 717 474 -717 475 -717 208
0 208 0 0 1050 0 1050 -207 -2 -208 -3 -5 -712 -5 -712 -470 712 -471 712
-212 3 -212 2 0 -1050z"/>
<path d="M750 3641 c-109 -38 -175 -157 -151 -267 21 -94 92 -168 181 -188 42
-10 56 -22 160 -140 154 -173 172 -187 252 -193 83 -6 140 22 183 92 26 42 30
58 30 123 0 71 -1 75 -33 103 -35 31 -61 32 -91 3 -13 -12 -12 -20 8 -62 25
-53 23 -74 -10 -116 -17 -21 -29 -26 -67 -26 -55 0 -68 9 -147 105 -32 39 -89
105 -128 148 -65 73 -71 77 -111 77 -78 0 -130 78 -103 157 46 137 249 74 222
-69 -5 -29 -1 -38 33 -71 l39 -38 19 38 c13 26 19 59 19 109 0 61 -4 77 -30
120 -60 96 -167 133 -275 95z"/>
<path d="M2150 3638 c-81 -43 -133 -151 -116 -242 11 -57 65 -128 119 -155
l47 -23 0 -114 0 -114 55 0 55 0 0 113 0 114 41 18 c156 71 172 297 27 392
-60 40 -164 45 -228 11z m145 -102 c36 -15 75 -67 75 -99 0 -31 -29 -76 -60
-92 -79 -41 -160 8 -160 97 0 42 23 76 64 94 39 17 40 17 81 0z"/>
<path d="M3625 3654 c-39 -9 -119 -79 -142 -125 -31 -59 -33 -139 -5 -203 12
-25 25 -46 29 -45 4 0 21 16 36 34 23 28 29 45 30 94 2 66 20 94 75 118 58 24
121 -5 147 -69 13 -32 14 -47 5 -74 -17 -49 -63 -84 -112 -84 -38 0 -46 -5
-123 -87 -46 -49 -101 -110 -123 -138 -64 -80 -98 -108 -132 -108 -43 0 -83
33 -93 76 -8 31 -5 44 17 81 l25 43 -25 12 c-76 34 -124 -8 -124 -112 0 -125
81 -217 192 -217 88 1 126 29 295 227 68 78 94 102 114 102 14 1 48 12 76 26
148 74 179 266 62 384 -19 19 -48 40 -66 47 -35 15 -126 25 -158 18z"/>
<path d="M463 3173 c-72 -151 -122 -296 -156 -448 -14 -60 -23 -111 -22 -113
1 -1 26 3 55 9 28 6 65 9 80 6 27 -6 28 -4 40 56 18 92 75 260 125 366 l45 93
-36 43 c-19 24 -43 59 -53 80 l-17 36 -61 -128z"/>
<path d="M1096 3259 c-24 -29 -25 -32 -11 -59 22 -42 50 -55 86 -40 47 20 56
81 16 112 -33 26 -62 22 -91 -13z"/>
<path d="M3314 3265 c-30 -30 -26 -58 12 -92 33 -30 50 -29 85 7 34 33 33 62
-3 93 -29 24 -65 21 -94 -8z"/>
<path d="M3977 3255 c-9 -19 -32 -52 -51 -73 l-35 -39 38 -89 c45 -103 93
-246 119 -354 15 -57 23 -74 35 -72 9 1 44 -2 78 -7 35 -6 64 -9 66 -7 2 2 -4
37 -13 77 -44 200 -97 352 -179 516 l-42 82 -16 -34z"/>
<path d="M1563 3139 l-33 -10 0 -109 c0 -124 -9 -107 115 -210 l71 -58 41 43
40 42 -73 64 -74 64 0 92 0 93 -27 -1 c-16 0 -43 -5 -60 -10z"/>
<path d="M2870 3056 l0 -92 -57 -50 c-31 -27 -70 -54 -86 -59 l-28 -11 51 -43
c58 -49 42 -53 159 42 l71 58 0 114 c0 67 -4 116 -10 120 -6 4 -31 8 -55 9
l-45 3 0 -91z"/>
<path d="M2067 3037 l-49 -9 7 -37 c4 -20 8 -37 9 -39 8 -7 106 23 106 32 -1
6 -6 22 -13 36 -11 25 -14 26 -60 17z"/>
<path d="M2386 3018 c-10 -39 -7 -44 40 -56 26 -7 48 -11 49 -10 2 2 6 19 10
39 7 36 6 36 -32 42 -57 10 -60 9 -67 -15z"/>
<path d="M1900 2982 c-8 -2 -25 -14 -37 -25 -21 -18 -21 -22 -7 -48 17 -34 15
-34 64 -9 29 15 37 24 33 39 -7 27 -35 49 -53 43z"/>
<path d="M2576 2968 c-21 -30 -20 -36 7 -59 47 -41 54 -41 78 -7 l23 31 -34
29 c-41 34 -54 35 -74 6z"/>
<path d="M776 2949 c-116 -27 -177 -155 -127 -265 46 -101 192 -131 286 -60
l35 27 38 -20 c35 -18 64 -20 315 -23 l277 -3 9 25 c5 14 19 35 31 48 12 13
19 26 15 30 -4 4 -140 9 -303 12 -346 6 -347 6 -354 81 -11 107 -111 174 -222
148z m99 -134 c14 -13 25 -36 25 -50 0 -51 -63 -89 -115 -69 -18 7 -45 55 -45
79 0 27 46 65 80 65 19 0 40 -9 55 -25z"/>
<path d="M3647 2949 c-76 -17 -124 -69 -135 -147 -12 -79 -22 -81 -369 -82
-270 0 -317 -4 -283 -25 6 -4 21 -28 35 -54 l24 -48 43 8 c24 4 145 8 270 9
212 0 230 1 272 22 41 20 45 20 61 4 33 -33 80 -50 137 -50 101 -1 178 75 178
175 0 130 -106 216 -233 188z m97 -130 c54 -42 18 -129 -54 -129 -59 0 -95 86
-54 131 23 25 74 24 108 -2z"/>
<path d="M2150 2874 c-135 -26 -256 -90 -350 -184 -117 -116 -177 -247 -187
-406 -23 -367 268 -667 647 -665 287 1 512 165 607 440 51 148 32 354 -46 481
-94 155 -194 243 -345 301 -70 27 -96 32 -191 35 -60 1 -121 0 -135 -2z m251
-130 c164 -48 309 -191 359 -352 71 -228 -49 -500 -265 -603 -346 -165 -738
54 -762 426 -10 143 37 268 140 381 64 69 161 126 259 150 75 18 204 17 269
-2z"/>
<path d="M2214 2595 c-3 -14 -4 -41 -2 -60 4 -33 3 -34 -44 -45 -63 -16 -129
-74 -158 -142 -60 -139 26 -323 162 -344 40 -7 39 -5 42 -84 1 -34 2 -35 44
-38 l42 -3 0 59 c0 47 4 61 17 66 18 7 33 -9 33 -37 0 -14 6 -18 28 -15 24 3
27 8 30 43 3 29 12 48 34 70 44 43 78 120 78 179 0 73 -19 123 -67 176 -36 40
-43 55 -43 89 0 40 -1 41 -35 41 -32 0 -35 -2 -35 -30 0 -23 -4 -30 -20 -30
-18 0 -20 7 -20 65 l0 65 -40 0 c-34 0 -41 -4 -46 -25z m124 -222 c97 -72 95
-192 -3 -253 -133 -82 -290 65 -214 200 31 56 79 81 142 77 28 -3 60 -13 75
-24z"/>
<path d="M345 2530 c-169 -27 -247 -227 -144 -370 43 -60 98 -84 190 -85 67 0
81 3 124 30 31 19 61 49 80 79 26 42 30 59 30 115 -1 76 -15 110 -74 169 -53
53 -125 75 -206 62z m96 -125 c35 -19 69 -70 69 -105 0 -65 -78 -127 -145
-114 -70 13 -112 100 -80 167 28 59 97 82 156 52z"/>
<path d="M4048 2526 c-66 -18 -116 -60 -144 -120 -80 -172 46 -351 236 -333
85 7 149 48 188 122 23 43 22 159 -2 205 -56 106 -166 157 -278 126z m106
-120 c78 -33 100 -118 46 -179 -51 -58 -129 -55 -178 8 -42 53 -19 144 41 170
41 18 50 18 91 1z"/>
<path d="M686 2433 c13 -25 24 -52 24 -60 0 -11 74 -13 399 -13 l400 0 15 54
c9 30 16 57 16 60 0 3 -197 6 -439 6 l-438 0 23 -47z"/>
<path d="M2965 2463 c4 -10 12 -37 18 -60 l10 -43 404 0 c356 0 403 2 403 15
0 9 9 33 20 55 11 22 20 42 20 45 0 3 -198 5 -441 5 -416 0 -441 -1 -434 -17z"/>
<path d="M700 2203 c0 -9 -11 -36 -25 -60 l-26 -43 436 3 437 2 -6 35 c-3 19
-6 45 -6 58 l0 22 -405 0 c-371 0 -405 -1 -405 -17z"/>
<path d="M2995 2174 c-3 -26 -9 -52 -11 -58 -3 -8 116 -11 437 -13 l441 -2
-17 22 c-9 12 -24 39 -33 59 l-17 38 -396 0 -397 0 -7 -46z"/>
<path d="M735 1966 c-94 -42 -131 -155 -84 -254 42 -86 151 -124 242 -84 60
27 107 96 107 158 0 40 2 43 40 58 34 13 85 16 306 16 146 0 264 3 262 8 -2 4
-15 31 -29 59 l-24 53 -245 0 -245 0 -50 -29 -50 -29 -51 29 c-57 32 -127 38
-179 15z m134 -113 c11 -10 24 -32 27 -50 5 -26 1 -36 -21 -57 -36 -33 -78
-34 -110 -1 -68 67 30 169 104 108z"/>
<path d="M2958 1969 c-10 -5 -18 -15 -18 -22 0 -7 -11 -29 -25 -50 l-26 -37
275 0 c238 0 280 -2 311 -17 31 -15 35 -21 35 -55 0 -86 75 -165 165 -176 90
-10 186 54 201 133 32 172 -125 291 -276 209 l-49 -26 -52 26 c-53 26 -54 26
-288 26 -142 0 -243 -5 -253 -11z m792 -119 c44 -44 8 -132 -55 -132 -64 0
-100 88 -53 132 28 26 82 26 108 0z"/>
<path d="M295 1934 c32 -188 91 -371 177 -554 l50 -104 14 33 c8 19 30 56 49
83 19 26 35 53 35 58 0 6 -12 34 -26 62 -44 86 -90 217 -119 336 l-28 112 -47
0 c-26 0 -62 3 -79 6 l-32 7 6 -39z"/>
<path d="M4124 1963 l-61 -4 -12 -66 c-17 -90 -84 -290 -126 -374 l-35 -69 40
-52 c22 -29 45 -68 51 -87 l12 -35 24 47 c78 155 145 342 183 513 25 113 25
135 3 132 -10 -1 -45 -3 -79 -5z"/>
<path d="M2773 1721 l-41 -46 53 -33 c79 -49 84 -57 87 -142 3 -66 5 -75 22
-75 14 0 22 -10 29 -35 8 -31 6 -36 -15 -50 -79 -50 -125 -144 -115 -232 17
-139 152 -237 285 -207 96 21 154 79 182 182 l17 62 56 3 c53 3 57 5 57 27 0
24 -3 25 -63 25 -61 0 -63 1 -81 35 -44 82 -130 135 -217 135 l-36 0 -7 94
c-4 51 -4 106 0 121 6 24 -1 34 -57 87 -35 33 -75 68 -89 77 -25 17 -25 17
-67 -28z m317 -486 c18 -9 34 -30 45 -60 16 -40 16 -49 4 -82 -20 -53 -87 -87
-141 -73 -20 6 -49 25 -63 42 -24 28 -27 39 -22 82 3 40 11 55 36 78 36 32 93
38 141 13z"/>
<path d="M1142 1747 c-31 -9 -127 -106 -286 -287 -31 -35 -57 -56 -74 -58 -79
-10 -152 -80 -178 -169 -31 -105 5 -197 104 -267 138 -98 352 19 352 191 0 71
-68 189 -120 205 -13 4 -13 7 0 25 35 48 193 219 218 235 40 27 79 23 113 -11
34 -35 37 -68 9 -104 l-21 -26 21 -21 c29 -29 74 -26 100 8 19 23 21 37 18 94
-3 55 -9 75 -33 110 -52 74 -137 103 -223 75z m-269 -476 c67 -26 89 -127 40
-181 -40 -43 -80 -52 -132 -29 -94 42 -92 163 4 218 20 11 43 9 88 -8z"/>
<path d="M1608 1693 l-78 -65 0 -74 c0 -72 1 -74 28 -80 15 -4 39 -13 54 -20
32 -17 38 -6 38 69 0 51 1 53 54 95 30 23 59 42 65 42 6 0 11 3 11 7 0 9 -82
93 -90 92 -3 0 -40 -30 -82 -66z"/>
<path d="M3246 1745 c-82 -29 -126 -96 -126 -191 0 -97 60 -145 120 -96 l22
18 -21 34 c-29 48 -26 74 10 104 33 28 62 32 95 13 21 -12 234 -246 234 -257
-1 -3 -15 -14 -33 -25 -73 -46 -109 -152 -82 -243 38 -126 169 -197 299 -161
46 13 119 82 141 135 20 49 19 140 -4 189 -27 60 -98 120 -157 134 -46 11 -57
20 -133 111 -201 240 -254 275 -365 235z m504 -478 c36 -18 63 -77 54 -121 -9
-49 -63 -96 -110 -96 -62 0 -97 28 -118 94 -10 30 12 93 41 115 30 24 94 28
133 8z"/>
<path d="M1856 1595 c-21 -32 -20 -37 7 -63 34 -32 60 -28 79 11 l16 34 -43
21 -43 21 -16 -24z"/>
<path d="M2600 1599 c-19 -12 -36 -23 -38 -24 -2 -2 4 -17 13 -34 19 -39 52
-41 89 -6 l27 25 -22 30 c-13 16 -25 30 -28 30 -3 0 -22 -10 -41 -21z"/>
<path d="M2026 1509 c-9 -46 -9 -47 27 -54 17 -4 39 -9 48 -11 11 -3 19 3 23
20 3 13 8 31 12 39 4 10 -7 17 -40 26 -62 15 -63 15 -70 -20z"/>
<path d="M2414 1529 c-30 -9 -32 -11 -24 -45 5 -19 10 -37 12 -40 7 -6 89 20
90 29 0 4 -2 21 -6 37 -6 32 -17 35 -72 19z"/>
<path d="M2200 1385 c0 -118 -1 -125 -20 -125 -31 0 -97 -66 -116 -115 -23
-62 -15 -134 19 -175 27 -31 27 -34 27 -182 l0 -150 -30 -41 c-60 -84 -58
-200 5 -283 76 -100 238 -108 328 -16 73 75 87 170 39 263 -40 76 -94 112
-177 117 l-65 4 0 139 c0 131 -1 140 -25 175 -40 59 -29 121 26 149 88 46 188
-58 130 -135 -18 -25 -21 -43 -21 -135 0 -76 4 -107 13 -110 6 -2 29 -6 50
-10 l37 -6 0 93 c0 80 4 100 26 143 31 60 28 122 -7 185 -24 42 -84 90 -112
90 -15 0 -17 14 -17 125 l0 125 -55 0 -55 0 0 -125z m105 -829 c35 -15 65 -59
65 -96 0 -34 -28 -78 -60 -95 -49 -25 -88 -19 -127 20 -33 33 -35 39 -30 82 4
37 12 54 36 75 35 31 65 35 116 14z"/>
<path d="M1090 1448 c-25 -41 -25 -41 3 -74 29 -34 73 -36 99 -4 24 29 23 61
-2 88 -32 34 -76 29 -100 -10z"/>
<path d="M3321 1449 c-30 -49 -2 -99 55 -99 59 0 89 82 42 114 -38 27 -76 20
-97 -15z"/>
<path d="M1880 1393 c-55 -20 -75 -80 -45 -133 11 -20 14 -73 15 -242 0 -134
-4 -219 -10 -223 -5 -3 -20 1 -32 9 -29 20 -67 20 -96 0 -29 -20 -31 -85 -2
-114 27 -27 77 -26 107 1 20 19 23 20 29 6 7 -20 1 -203 -7 -212 -11 -10 -210
61 -329 118 -115 55 -274 155 -359 226 l-46 38 -57 -57 -57 -57 69 -56 c152
-126 352 -240 545 -312 99 -37 373 -110 381 -102 2 2 -5 25 -17 51 -19 45 -20
63 -19 334 2 379 8 572 18 586 34 44 17 111 -34 132 -18 8 -35 14 -36 13 -2 0
-10 -3 -18 -6z"/>
<path d="M2584 1390 c-48 -19 -69 -85 -40 -126 12 -16 15 -99 17 -454 3 -425
2 -436 -19 -483 l-21 -47 22 5 c406 88 648 196 910 404 l76 60 -60 57 -59 57
-33 -30 c-98 -94 -401 -257 -591 -319 -59 -19 -110 -33 -113 -31 -2 2 -2 55
-1 117 l3 112 27 -22 c42 -33 96 -25 121 18 17 28 17 37 7 63 -7 16 -21 34
-31 39 -27 15 -75 12 -89 -5 -7 -8 -19 -15 -26 -15 -12 0 -14 40 -14 221 0
187 3 225 16 249 20 33 13 89 -14 112 -23 20 -62 28 -88 18z"/>
<path d="M1407 1356 c-57 -21 -103 -61 -127 -111 l-22 -45 -74 0 c-72 0 -74
-1 -74 -25 0 -24 2 -25 70 -25 67 0 70 -1 70 -23 0 -39 29 -111 60 -149 86
-104 269 -108 353 -8 87 103 83 233 -11 329 -66 69 -154 89 -245 57z m142
-121 c31 -15 61 -69 61 -108 0 -39 -41 -91 -84 -105 -100 -32 -186 67 -141
162 29 61 102 84 164 51z"/>
<path d="M14910 1098 c0 -46 -4 -78 -8 -72 -32 46 -123 58 -179 24 -109 -66
-106 -258 5 -323 45 -27 115 -26 152 2 30 21 30 21 30 1 0 -18 6 -20 55 -20
l55 0 0 235 0 235 -55 0 -55 0 0 -82z m-47 -129 c51 -23 63 -104 22 -144 -30
-31 -66 -32 -101 -2 -46 40 -34 125 21 147 27 12 31 12 58 -1z"/>
<path d="M15710 945 l0 -235 55 0 c47 0 55 3 55 18 0 18 3 17 48 -4 39 -20 54
-22 86 -14 83 19 129 84 129 180 0 107 -62 180 -152 180 -43 0 -85 -18 -103
-44 -4 -6 -8 26 -8 72 l0 82 -55 0 -55 0 0 -235z m243 3 c10 -12 17 -37 17
-63 0 -35 -5 -48 -26 -64 -35 -28 -69 -26 -99 4 -27 26 -34 80 -14 116 22 42
89 46 122 7z"/>
<path d="M17547 1156 c-128 -35 -196 -163 -156 -297 54 -179 320 -207 414 -44
105 182 -57 396 -258 341z m133 -114 c57 -42 62 -152 10 -204 -24 -23 -37 -28
-78 -28 -60 0 -95 24 -112 76 -24 71 6 149 65 175 28 12 85 3 115 -19z"/>
<path d="M10820 935 l0 -225 55 0 55 0 0 79 0 78 65 5 c110 9 171 67 162 155
-10 99 -69 132 -229 133 l-108 0 0 -225z m210 115 c24 -24 25 -38 4 -68 -12
-17 -25 -22 -60 -22 l-44 0 0 55 0 55 40 0 c27 0 47 -7 60 -20z"/>
<path d="M18157 1153 c-4 -3 -7 -24 -7 -45 0 -31 -3 -38 -20 -38 -17 0 -20 -7
-20 -46 0 -36 4 -47 19 -51 16 -4 19 -18 23 -92 8 -136 38 -171 144 -171 l44
0 0 45 c0 43 -1 45 -30 45 -39 0 -50 23 -50 104 l0 65 38 3 c37 3 37 3 37 48
0 45 0 45 -37 48 -38 3 -38 4 -38 48 l0 44 -48 0 c-27 0 -52 -3 -55 -7z"/>
<path d="M11535 1056 c-95 -41 -132 -178 -74 -273 60 -97 241 -98 310 -1 35
49 38 139 7 197 -42 79 -156 115 -243 77z m134 -101 c7 -7 16 -33 18 -58 5
-39 2 -49 -20 -71 -31 -31 -66 -33 -98 -7 -19 15 -24 29 -24 66 0 39 5 51 29
72 31 26 67 25 95 -2z"/>
<path d="M12066 1048 c4 -13 26 -93 49 -178 l42 -155 60 -3 60 -3 29 110 c16
61 31 105 35 98 4 -6 17 -56 29 -109 l22 -98 62 0 61 0 44 168 c25 92 46 173
49 180 3 8 -10 12 -47 12 -44 0 -51 -3 -56 -22 -3 -13 -14 -68 -25 -122 -11
-55 -21 -101 -23 -102 -1 -1 -15 54 -31 122 l-29 124 -58 0 -58 0 -27 -120
c-15 -66 -31 -117 -35 -113 -3 5 -12 37 -18 73 -7 36 -17 86 -23 113 l-10 47
-55 0 c-52 0 -54 -1 -47 -22z"/>
<path d="M12955 1047 c-58 -32 -87 -93 -83 -174 7 -107 67 -163 177 -163 77 0
127 26 154 82 l16 33 -56 3 c-39 2 -60 -1 -72 -12 -35 -32 -111 -11 -111 29 0
11 26 15 123 17 l122 3 -3 44 c-1 25 -12 62 -24 83 -42 74 -160 101 -243 55z
m136 -77 c10 -6 19 -20 19 -30 0 -18 -7 -20 -65 -20 -69 0 -79 8 -48 42 18 20
64 24 94 8z"/>
<path d="M13520 890 l0 -180 55 0 55 0 0 98 c0 119 11 142 71 142 l39 0 0 60
c0 33 -4 60 -9 60 -21 0 -60 -20 -80 -41 l-21 -23 0 32 0 32 -55 0 -55 0 0
-180z"/>
<path d="M14103 1049 c-62 -30 -88 -78 -88 -159 0 -73 20 -118 68 -154 42 -31
160 -35 205 -7 29 19 72 74 72 94 0 4 -27 7 -59 7 -43 0 -60 -4 -65 -15 -9
-25 -82 -20 -100 7 -9 12 -16 26 -16 30 0 5 57 8 126 8 l127 0 -6 51 c-4 28
-16 66 -28 85 -43 71 -152 95 -236 53z m141 -91 c9 -12 16 -26 16 -30 0 -5
-31 -8 -70 -8 -38 0 -70 3 -70 8 0 4 7 18 16 30 11 16 25 22 54 22 29 0 43 -6
54 -22z"/>
<path d="M16380 978 c21 -51 54 -130 73 -174 l34 -82 -33 -70 c-54 -119 -55
-114 13 -110 l58 3 107 250 c58 138 107 256 107 263 1 10 -14 12 -55 10 l-56
-3 -41 -109 -40 -109 -34 89 c-55 146 -44 134 -112 134 l-60 0 39 -92z"/>
<path d="M18715 1056 c-133 -58 -134 -264 -3 -332 44 -23 157 -16 195 12 51
39 67 70 71 142 2 55 -1 74 -20 107 -42 73 -160 107 -243 71z m138 -108 c9
-11 17 -37 17 -58 0 -101 -114 -126 -140 -31 -25 92 65 158 123 89z"/>
<path d="M19280 890 l0 -180 55 0 55 0 0 115 c0 102 2 117 20 135 26 26 72 26
96 -1 16 -18 20 -40 22 -135 l4 -114 49 0 49 0 0 130 c0 147 -9 178 -63 210
-41 25 -92 25 -140 0 l-37 -20 0 20 c0 18 -7 20 -55 20 l-55 0 0 -180z"/>
<path d="M20025 1060 c-28 -11 -72 -60 -84 -93 -31 -80 1 -198 64 -237 46 -29
118 -29 156 -1 29 21 29 21 29 1 0 -18 6 -20 55 -20 l55 0 0 180 0 180 -51 0
c-42 0 -52 -3 -56 -19 -5 -19 -5 -19 -36 0 -33 20 -96 24 -132 9z m148 -112
c10 -12 17 -37 17 -63 0 -35 -5 -48 -26 -64 -35 -28 -69 -26 -99 4 -27 26 -34
80 -14 116 22 42 89 46 122 7z"/>
<path d="M991 900 c-19 -16 -50 -35 -69 -41 -32 -11 -33 -12 -16 -30 9 -10 24
-19 32 -19 20 0 102 83 102 104 0 22 -10 20 -49 -14z"/>
<path d="M3480 906 c0 -17 85 -96 103 -96 7 0 24 11 37 25 l23 25 -26 0 c-15
0 -49 14 -75 30 -56 34 -62 36 -62 16z"/>
</g>
</svg>
